<svg height="512" viewBox="0 0 64 64" width="512" fill="white" xmlns="http://www.w3.org/2000/svg"><g id="man-boy-avatar-person-user"><path d="m29 23a3 3 0 0 0 -6 0h2a1 1 0 0 1 2 0z"/><path d="m38 22a1 1 0 0 1 1 1h2a3 3 0 0 0 -6 0h2a1 1 0 0 1 1-1z"/><path d="m49.29 43.46-12.29-3.23v-3.29a13.09 13.09 0 0 0 4-2.74 13.708 13.708 0 0 0 3.79-7.28 4.99 4.99 0 0 0 .21-9.82v-2.11a1 1 0 0 1 .39-.79 9.017 9.017 0 0 0 3.61-7.2v-4a.984.984 0 0 0 -.53-.88.963.963 0 0 0 -1.02.05l-4.45 2.96v-2.13a.976.976 0 0 0 -.5-.86.994.994 0 0 0 -1-.01l-4.96 2.84.43-1.73a1.022 1.022 0 0 0 -.18-.86 1 1 0 0 0 -.79-.38h-8a9.014 9.014 0 0 0 -9 9v6.1a5 5 0 0 0 .15 9.82 12.946 12.946 0 0 0 7.85 10.09v3.22l-12.3 3.23a9.03 9.03 0 0 0 -6.7 8.71v8.83a1 1 0 0 0 1 1h46a1 1 0 0 0 1-1v-8.83a9.028 9.028 0 0 0 -6.71-8.71zm-30.29-18.64a3.179 3.179 0 0 1 -1.12-.69 3 3 0 0 1 1.12-4.95zm28-2.82a3 3 0 0 1 -.87 2.12 3.143 3.143 0 0 1 -1.14.7c0-.06.01-.11.01-.17v-5.47a3.01 3.01 0 0 1 2 2.82zm-26-11a7.008 7.008 0 0 1 7-7h6.72l-.69 2.76a1 1 0 0 0 1.47 1.11l5.5-3.15v2.28a.984.984 0 0 0 .53.88.963.963 0 0 0 1.02-.05l4.45-2.96v2.13a7.024 7.024 0 0 1 -2.8 5.6 2.993 2.993 0 0 0 -1.2 2.39v2.01h-2a3.009 3.009 0 0 0 -3-3h-12a3.009 3.009 0 0 0 -3 3h-2zm3.22 21.78a10.9 10.9 0 0 1 -3.22-7.78v-6h2a2.006 2.006 0 0 0 2-2 1 1 0 0 1 1-1h12a1 1 0 0 1 1 1 2.006 2.006 0 0 0 2 2h2v5.65a11.574 11.574 0 0 1 -3.41 8.13 10.711 10.711 0 0 1 -7.59 3.22h-.02a10.941 10.941 0 0 1 -7.76-3.22zm6.78 27.22h-21v-7.83a7.008 7.008 0 0 1 5.21-6.77l11.79-3.1v.7a5.017 5.017 0 0 0 4 4.9zm-2-17v-5.36a12.775 12.775 0 0 0 2.97.36h.03a12.1 12.1 0 0 0 3-.39v5.39a3 3 0 0 1 -6 0zm25 17h-21v-12.1a5.017 5.017 0 0 0 4-4.9v-.7l11.78 3.1a7.006 7.006 0 0 1 5.22 6.77z"/><path d="m27 50h2v2h-2z"/><path d="m27 56h2v2h-2z"/><path d="m35 50h2v2h-2z"/><path d="m35 56h2v2h-2z"/><path d="m37 29h-2c0 .249-1.064 1-3 1s-3-.751-3-1h-2c0 1.71 2.149 3 5 3s5-1.29 5-3z"/></g></svg>