<?xml version="1.0" encoding="utf-8"?>
<!-- Generator: Adobe Illustrator 24.0.2, SVG Export Plug-In . SVG Version: 6.00 Build 0)  -->
<svg version="1.1" id="Layer_1" xmlns="http://www.w3.org/2000/svg" xmlns:xlink="http://www.w3.org/1999/xlink" x="0px" y="0px"
	 viewBox="0 0 512 512" style="enable-background:new 0 0 512 512;" fill="white" xml:space="preserve">
<style type="text/css">
	.st0{fill:#7D5351;}
</style>
<g>
	<path class="st0" d="M84.4162,441.5176c9.4161-30.1815,32.5079-47.2416,41.8075-55.8038
		c8.4404-7.7697,12.1718-20.2778,15.1146-31.2049c0.2318-0.8612,0.4044,1.0202,0.2552,1.9076
		c-0.8479,5.0186-2.7701,8.0681-4.6168,12.0854c-1.8459,4.0173-3.6169,9.0025-6.8201,13.0788
		c-0.6786,0.8631-5.5244,9.1216-6.2652,9.9239c1.4528-0.7722,10.4324-6.8319,11.8793-7.6067
		c5.1581-3.8622,10.2125-7.8469,14.8391-12.3249c17.7721-17.1995,29.8346-40.1185,46.171-58.761
		c17.6485-20.1411,30.7652-43.2681,39.9333-68.4166c0.3588-0.9816,1.7526-0.4208,1.4974,0.5549
		c-5.8634,22.4432-15.9891,42.9023-30.3492,61.1731c-7.3456,9.3448-15.7396,17.8009-22.8836,27.31
		c-7.2226,9.6137-13.3877,19.9886-20.8275,29.444c-1.4429,1.8336-2.9651,3.5638-4.5186,5.2535
		c13.0428-10.2073,25.3664-21.3916,38.6239-31.3312c0.7598-0.57,1.704,0.5287,0.9554,1.136
		c-14.1047,11.4369-26.6477,24.6937-40.5975,36.3354c-6.5904,5.4995-14.7081,9.3985-21.9138,14.1605
		c-7.7428,5.1168-15.227,10.67-21.9804,17.0536c-9.5184,8.996-17.1976,19.9355-22.0193,32.1368
		c-5.3379,13.5081-6.3856,28.1162-8.7866,42.3133c-0.1701,1.0025-0.4874,2.1863-1.4541,2.5024
		c-0.8488,0.2762-1.78-0.337-2.17-1.1393c-0.3894-0.8023-0.3717-1.7335-0.3396-2.6248
		C80.3747,467.0247,80.9034,452.7772,84.4162,441.5176z"/>
	<path class="st0" d="M429.9401,203.0375c-16.3835,17.8147-26.0797,40.2795-41.5778,59.2629
		c-15.483,18.8722-35.5632,34.0935-58.1916,43.4101c-22.7107,9.3101-46.8896,12.6587-70.4871,17.3749
		c-23.5856,4.5029-47.4183,10.3506-68.0358,22.6742l-5.1573,3.0829l3.4532-4.9597c13.7222-19.7078,28.4912-38.8143,45.3654-56.0746
		c8.4064-8.6479,17.2761-16.8841,26.7865-24.3947c9.5738-7.5203,19.5927-14.0597,29.8058-20.5435
		c10.2688-6.3391,21.0238-12.1803,32.4175-16.3881c11.352-4.2902,23.0099-7.4955,34.7001-10.312
		c23.4379-5.4119,47.0585-9.5444,70.7085-13.5271l0.0908,0.4601c-23.3568,5.4132-46.7886,10.5633-69.906,16.6171
		c-11.5383,3.0685-22.9635,6.5099-33.9423,10.9579c-10.99,4.4198-21.4629,9.9495-31.5151,16.2952
		c-10.0129,6.3607-19.9624,13.1455-29.3451,20.2968c-9.403,7.2252-18.2446,15.2154-26.6556,23.6434
		c-16.8069,16.8789-32.2592,35.1863-46.3961,54.4734l-1.7034-1.8762c21.4531-11.8983,45.4734-17.0287,69.0108-22.0061
		c23.6061-4.8105,47.4216-9.725,69.2863-19.363c21.8052-9.5444,41.5032-23.9647,56.9444-42.1458
		c15.4753-18.0836,26.3493-40.4607,44.0102-57.2873L429.9401,203.0375z"/>
	<path class="st0" d="M424.5963,204.4451c-32.2599,28.2333-60.0789,60.9296-100.3715,78.029
		c-20.7823,8.8206-42.4089,15.5256-63.2711,24.1826c-22.1559,9.1963-43.0894,20.1973-63.292,33.1066
		c-1.0418,0.6655-2.1805-1.1027-1.174-1.8264c36.4756-26.257,79.6356-38.813,120.906-55.1337
		c43.1397-17.0601,71.5584-50.4468,106.7249-78.9269C424.4902,203.576,424.9562,204.1297,424.5963,204.4451L424.5963,204.4451z"/>
	<path class="st0" d="M429.4231,203.9039c-20.6554,6.5165-37.4865,19.1555-55.7023,30.3948
		c-19.4518,12.0023-40.5504,20.8138-61.3,30.2574c-42.7119,19.4395-80.6931,45.7561-116.4821,75.9415
		c-1.0241,0.8638-2.3584-0.7224-1.3376-1.5915c35.9133-30.5702,73.7696-56.9097,116.8427-76.4107
		c21.351-9.6674,43.062-18.7066,63.0034-31.1421c17.7224-11.0515,34.2368-23.1964,54.7868-28.4722
		C429.8943,202.7116,430.0441,203.7069,429.4231,203.9039L429.4231,203.9039z"/>
	<path class="st0" d="M418.0483,206.1563c-40.6983,14.3686-81.9273,28.4035-119.6278,49.7395
		c-38.8581,21.9897-70.8654,52.5697-101.7595,84.3643c-0.9592,0.9862-2.7236-0.6105-1.7891-1.6445
		c28.804-31.8875,61.5834-61.3772,98.977-82.8304c38.8483-22.2868,81.5131-36.6705,123.9501-50.3984
		C418.2355,205.2448,418.4835,206.0025,418.0483,206.1563L418.0483,206.1563z"/>
	<path class="st0" d="M429.1443,203.8817c-31.735,35.8014-59.2263,72.0727-104.14,92.0279
		c-42.4405,18.8584-90.2488,22.3064-130.3581,46.6029c-0.8756,0.5301-1.8251-0.9332-0.9751-1.5189
		c36.2975-24.9849,82.3777-27.8086,122.5333-43.8918c24.2389-9.708,45.5938-22.9674,64.2258-41.3003
		c16.9234-16.6531,31.6905-35.3388,48.2808-52.3197C428.9434,203.243,429.3694,203.6271,429.1443,203.8817L429.1443,203.8817z"/>
	<path class="st0" d="M431.6716,29.8152c-11.075,6.4877-18.225,17.4809-23.7874,28.7065
		c-5.7077,11.2687-10.0601,23.3293-16.4332,34.5555c-12.6089,22.4635-29.2653,42.1648-46.1632,61.1646
		c-8.4324,9.5562-17.2035,18.9049-26.6451,27.5698c-9.4397,8.7087-19.8622,16.1447-29.9771,23.8495
		c-20.7616,14.8012-38.4467,33.2146-55.463,52.128l-2.2269,2.4736l0.1976-3.3584c1.5706-26.8094,7.0413-53.5605,17.3239-78.5742
		c10.2682-24.928,25.5182-48.2716,46.1514-66.0745c2.473-2.3349,5.1992-4.3694,7.8959-6.436
		c2.67-2.1026,5.3949-4.1391,8.2397-5.9786c5.6447-3.7451,11.4106-7.2265,17.219-10.5522
		c11.7013-6.5852,22.8136-13.5244,33.4183-21.7358c5.3548-3.9977,10.91-7.9431,16.723-11.3427
		c5.6664-3.4029,11.0482-7.3214,16.5418-11.1791c5.4708-3.8708,11.2308-7.521,17.4338-10.2276
		c6.1998-2.7079,12.7568-4.5009,19.4009-5.425l0.0766,0.462c-6.5545,1.2591-12.9178,3.3649-18.8387,6.3221
		c-5.927,2.9677-11.3363,6.8129-16.6609,10.8165c-5.3132,4.0193-10.6143,8.178-16.2973,11.8721
		c-5.6095,3.5756-10.8453,7.5688-16.142,11.6581c-10.3827,8.4214-21.8451,15.9444-33.3219,22.7207
		c-5.6985,3.4932-11.4362,6.8555-16.9023,10.5639c-2.7681,1.8068-5.3911,3.7909-7.9674,5.8405
		c-2.6025,2.0142-5.2345,3.9918-7.6185,6.2698c-19.7412,17.4475-35.0076,39.7612-45.355,64.1166
		c-10.4664,24.3311-16.7526,50.5038-18.9762,77.0435l-2.0286-0.8841c8.8612-9.1452,17.7073-18.3349,26.9429-27.1418
		c9.2479-8.7925,19.1078-16.9607,29.1979-24.7297c10.0974-7.7585,20.0867-15.6473,29.1043-24.5177
		c9.0758-8.8317,17.2938-18.5018,25.5955-28.1299c16.4908-19.3401,33.3684-38.4452,46.0166-60.3479
		c6.4131-10.8368,11.2642-22.6389,17.3893-33.9207c6.0074-11.2059,14.2148-22.0453,25.7119-27.9892L431.6716,29.8152z"/>
	<path class="st0" d="M427.897,31.7502c-23.3371,9.1419-40.1054,34.3539-54.584,53.7849
		c-14.599,19.592-28.4355,39.7403-44.6908,58.0313c-31.2396,35.1536-67.3205,66.3356-91.34,107.295
		c-0.7867,1.3402-2.7198-0.0883-1.9516-1.4213c25.1027-43.5076,63.7769-75.95,96.4445-113.3992
		c16.5935-19.024,30.7331-39.8711,46.2567-59.7341c13.1586-16.835,28.6875-37.8968,49.4646-45.4348
		C428.0744,30.662,428.4794,31.5219,427.897,31.7502L427.897,31.7502z"/>
	<path class="st0" d="M418.7512,36.0797c-43.7288,22.4275-66.1648,67.3768-99.4638,101.2464
		c-16.7513,17.0392-35.6077,31.6277-50.2617,50.6962c-15.1375,19.6954-25.8886,41.8049-33.265,65.4561
		c-0.4731,1.5169-2.7027,0.6132-2.2845-0.8854c6.3274-22.7056,16.7591-44.1319,30.6906-63.1474
		c14.3836-19.6319,33.1315-34.4874,50.3672-51.4114c34.8301-34.2008,58.0802-81.0857,103.8776-102.6985
		C418.8899,35.1099,419.2164,35.8409,418.7512,36.0797L418.7512,36.0797z"/>
	<path class="st0" d="M427.7962,31.8962c-19.2543,5.7672-36.4617,19.592-53.3105,30.3071
		c-20.4584,13.0101-39.4405,28.5553-56.8036,45.3452c-20.0076,19.3453-39.1572,40.076-53.5291,64.0465
		c-15.2481,25.4312-20.8399,53.6567-28.0285,82.0241c-0.5072,2.0018-3.5364,0.8331-3.0122-1.1674
		c7.4915-28.5959,13.2188-56.9404,28.6436-82.6033c14.5302-24.1754,33.9855-44.9034,54.3405-64.2409
		c18.0293-17.1269,38.4066-31.521,59.6418-45.9282c16.3907-11.1195,32.856-23.593,51.859-28.9538
		C428.3374,30.516,428.5154,31.6815,427.7962,31.8962L427.7962,31.8962z"/>
	<path class="st0" d="M427.9782,31.656c-19.717,12.7974-33.3978,36.7189-44.6875,56.8449
		c-9.3324,16.6374-17.7473,33.1701-29.3668,48.4614c-16.0804,21.1645-34.8781,40.4372-54.6481,58.1602
		c-21.1841,18.9913-46.36,34.3827-62.3431,58.4351c-0.9456,1.4227-3.0155-0.1224-2.1301-1.5522
		c14.0643-22.7056,37.1344-37.0526,56.9143-54.241c23.0996-20.0743,45.0461-42.259,63.1696-66.9796
		c11.2085-15.2906,19.1464-32.1394,28.7726-48.3534c11.1935-18.8519,24.2116-40.5373,43.8525-51.5253
		C427.9481,30.662,428.4035,31.3798,427.9782,31.656L427.9782,31.656z"/>
	<g>
		<path class="st0" d="M183.2368,134.7779c-2.4448,16.9568,2.3067,33.6072,7.6401,49.5614
			c5.3235,16.0026,11.359,32.3141,12.747,49.5425c1.5542,17.1171-0.1878,34.3997-4.5278,50.8918
			c-4.3275,16.5314-12.0192,31.9281-15.8174,48.3921c-0.1165,0.5058-0.6217,0.8213-1.1275,0.7041
			c-0.4025-0.0923-0.6845-0.4313-0.7238-0.82l-0.0033-0.0347c-1.7453-17.4057-10.0215-33.1289-17.4528-48.9751
			c-3.7006-7.9804-7.3273-16.091-9.9383-24.644c-2.6379-8.5687-3.6489-17.6524-3.7065-26.5077
			c-0.1571-17.8035,2.685-35.431,7.5033-52.4356c2.4933-8.479,5.3981-16.8547,9.2362-24.839
			c3.9244-7.873,8.8029-15.6211,15.8822-21.0147c0.0792-0.0615,0.1944-0.0458,0.2552,0.0347
			c0.0589,0.0772,0.0367,0.195-0.0366,0.2572c-6.6971,5.7064-10.8093,13.6481-14.4537,21.4891
			c-3.5213,7.9758-6.118,16.3318-8.3049,24.7644c-4.1463,16.9325-6.381,34.3604-6.3091,51.6902
			c0.0713,8.7002,1.2244,17.2048,3.5508,25.4881c2.4005,8.2912,5.8405,16.3141,9.4096,24.303
			c7.1264,15.8796,14.9635,32.3109,16.2435,50.2361l-1.8538-0.1505c4.4237-16.5765,12.5317-31.7376,16.3814-48.2599
			c4.1168-16.4306,4.6652-33.5804,2.7655-50.2525c-1.7577-16.7637-7.2481-32.769-12.3746-49.015
			c-2.4998-8.1401-4.673-16.4463-5.9616-24.9254c-1.2015-8.4862-1.1236-17.1989,0.6184-25.547
			c0.0203-0.0982,0.1171-0.1616,0.2153-0.1414C183.1884,134.5908,183.2505,134.6837,183.2368,134.7779z"/>
		<path class="st0" d="M182.8847,135.3191c-10.844,12.0645-8.1944,31.8266-8.6086,46.8509
			c-0.5157,18.6948-0.9495,36.6175,2.0941,55.1624c5.2169,31.7834,10.1451,63.7789,6.4452,96.0439
			c-0.1113,0.9679-1.6419,0.9646-1.5326-0.0157c4.1778-37.2045-4.8725-72.4654-8.9417-109.1162
			c-2.0771-18.7007-0.2899-37.9564,0.6467-56.6878c0.5587-11.1738,0.4167-24.6302,9.6136-32.5268
			C182.799,134.8597,183.0601,135.1248,182.8847,135.3191L182.8847,135.3191z"/>
		<path class="st0" d="M182.4373,135.8878c-10.1701,13.5814-16.1428,29.1187-19.1406,45.7319
			c-3.1738,17.5863-5.4014,37.6809-4.0016,55.5996c1.3284,17.0117,10.2459,33.4168,14.9504,49.6995
			c4.3936,15.2049,7.4385,30.6932,8.8586,46.4603c0.1217,1.3513-1.9881,1.3193-2.1091-0.0216
			c-1.7086-18.8767-5.8915-37.2908-11.6979-55.3129c-5.3184-16.5039-12.5181-31.5289-12.2138-49.2074
			c0.5359-31.3057,2.6667-69.0265,24.8808-93.3223C182.193,135.2648,182.6452,135.609,182.4373,135.8878L182.4373,135.8878z"/>
		<path class="st0" d="M183.066,135.3675c-7.297,12.0062-4.5932,31.3188-3.6012,44.6214
			c1.3062,17.5208,3.5521,34.9448,5.527,52.3983c3.6797,32.517,11.6458,65.9476-1.3631,97.5425
			c-0.2912,0.7087-1.2617,0.4293-1.1392-0.3259c1.4055-8.6243,4.0015-17.0274,5.4438-25.6681
			c1.9836-11.8891,1.4536-21.9832-0.5916-33.833c-2.8466-16.4902-3.8557-33.3291-5.7888-49.9456
			c-2.1059-18.1013-4.4761-36.34-4.8209-54.5826c-0.1728-9.1812-0.7133-23.1866,5.7482-30.6683
			C182.7623,134.5796,183.2832,135.0089,183.066,135.3675L183.066,135.3675z"/>
		<path class="st0" d="M183.382,135.3577c-5.9321,17.3671-0.9698,38.1357,2.4998,55.5322
			c3.6823,18.4592,7.9457,36.7673,10.7059,55.4046c2.2184,14.9713,0.4136,29.5362-1.6681,44.3963
			c-2.0155,14.3935-5.673,30.0722-12.3118,43.011c-0.3514,0.6838-1.3376,0.1754-1.1838-0.5131
			c3.4369-15.3875,9.6929-29.5775,11.7458-45.3746c0.9384-7.2232,2.1634-14.5139,2.524-21.7856
			c0.5438-10.9769-1.5274-21.7057-3.3806-32.4686c-3.0456-17.6923-7.4155-35.1196-10.3702-52.8249
			c-2.4767-14.8476-4.8915-31.1768,0.161-45.7437C182.3828,134.1883,183.6602,134.5443,183.382,135.3577L183.382,135.3577z"/>
	</g>
	<path class="st0" d="M139.8771,252.7632c-2.5299,12.2366,0.0505,24.4339,2.9631,36.3819
		c1.405,6.0231,2.9612,12.0612,4.1103,18.2636c1.1465,6.2148,1.5208,12.5919,1.3952,18.9069
		c-0.4646,12.6796-3.626,25.0333-8.2467,36.6391c-4.7843,11.5383-11.0632,22.3935-14.9229,34.0483
		c-0.2094,0.6321-0.8926,0.975-1.5254,0.7663c-0.4941-0.1636-0.8114-0.6165-0.8272-1.1079l-0.0018-0.0779
		c-0.3665-12.5409-4.329-24.6492-7.8883-36.8524c-1.7976-6.1153-3.5979-12.2883-4.9531-18.6464
		c-1.5378-6.2848-1.8676-13.194-1.3494-19.6365c0.924-13.0454,4.2143-25.672,8.9306-37.6939
		c2.3264-6.0257,5.2542-11.8256,8.6753-17.3167c3.4578-5.4125,7.6617-10.6739,13.2921-13.938
		c0.1126-0.0648,0.2559-0.0268,0.3206,0.0851c0.0609,0.1047,0.0196,0.2447-0.0759,0.3148
		c-5.1475,3.7288-8.4398,9.2957-11.4408,14.7554c-2.9664,5.544-5.2025,11.4526-7.2704,17.3847
		c-3.9526,11.9251-6.667,24.3331-7.5799,36.7274c-1.0451,12.3609,2.3866,24.4339,5.6245,36.7948
		c3.2452,12.2641,6.6291,24.9653,6.1376,38.0558l-2.3539-0.4188c4.6424-11.7249,11.323-22.2796,15.7297-33.8252
		c4.4885-11.5036,6.0841-23.9457,5.8588-36.0972c0.0551-12.2163-2.6078-24.1355-5.1645-36.3596
		c-2.3976-12.088-4.1868-25.3036,0.1113-37.2817c0.0438-0.1217,0.178-0.1859,0.3004-0.142
		C139.8378,252.5328,139.9,252.6506,139.8771,252.7632z"/>
	<path class="st0" d="M139.491,253.0936c-8.4941,7.8076-7.9542,21.9766-9.2637,32.5864
		c-1.6295,13.1999-3.149,25.8585-2.2485,39.1925c1.5431,22.8548,2.8676,45.8392-1.9337,68.431
		c-0.1446,0.6779-1.227,0.5726-1.0835-0.1145c5.4732-26.0555,1.4528-51.6313,1.0502-77.8537
		c-0.2048-13.3798,2.3611-26.8911,4.2922-40.0884c1.1511-7.8731,1.9607-17.4089,9.0058-22.3778
		C139.4609,252.7632,139.6277,252.968,139.491,253.0936L139.491,253.0936z"/>
	<path class="st0" d="M139.135,253.4653c-8.1178,8.9273-13.3975,19.5233-16.6439,31.0813
		c-3.4356,12.2359-6.3725,26.3114-6.5929,39.0918c-0.2102,12.1338,4.9931,24.3508,7.2224,36.196
		c2.0823,11.0613,3.1902,22.2332,3.1287,33.4908c-0.0046,0.9646-1.496,0.7997-1.4914-0.1577
		c0.0674-13.4799-1.6478-26.7989-4.5407-39.9503c-2.6491-12.0435-6.7287-23.1676-5.3191-35.662
		c2.4978-22.1272,6.5577-48.6878,23.9274-64.3855C139.0041,253.0079,139.3012,253.2828,139.135,253.4653L139.135,253.4653z"/>
	<path class="st0" d="M139.6153,253.1401c-5.9779,8.0059-5.3693,21.8608-5.5676,31.3456
		c-0.2598,12.4931,0.1518,24.9797,0.3691,37.4695c0.4057,23.2691,3.7844,47.4759-7.5622,68.9637
		c-0.2546,0.4817-0.9227,0.2192-0.7846-0.3082c1.5784-6.0107,3.9853-11.7838,5.5899-17.8036
		c2.2086-8.2827,2.5162-15.4641,1.869-23.9922c-0.8991-11.8662-0.4744-23.8554-0.7192-35.7504
		c-0.2663-12.9571-0.7113-26.03,0.2796-38.9681c0.4978-6.5112,1.0619-16.4627,6.1427-21.3229
		C139.4537,252.5616,139.7939,252.9006,139.6153,253.1401L139.6153,253.1401z"/>
	<path class="st0" d="M139.8404,253.1545c-5.3739,11.8943-3.2668,26.933-1.9868,39.4824
		c1.3585,13.3183,3.1385,26.5672,3.8322,39.949c0.5569,10.7491-1.7054,20.9381-4.1842,31.3168
		c-2.4003,10.0542-6.0499,20.906-11.6254,29.6174c-0.2945,0.4601-0.9587,0.0341-0.8029-0.443
		c3.4743-10.6621,8.8618-20.2844,11.3839-31.3293c1.1539-5.0493,2.5129-10.1288,3.2615-15.252
		c1.1269-7.7337,0.3861-15.4693-0.1976-23.2148c-0.9593-12.7307-2.8748-25.3651-3.7685-38.099
		c-0.7501-10.6785-1.3546-22.402,3.2077-32.3737C139.2115,252.2586,140.0917,252.5976,139.8404,253.1545L139.8404,253.1545z"/>
	<path class="st0" d="M116.1486,400.0798c18.7315-12.4041,38.8005-22.8169,59.6451-31.3679
		c20.9132-8.2762,42.5993-15.3083,65.1721-17.8094c11.2347-1.3042,22.6808-1.5555,33.9155,0.1394
		c11.2825,1.5863,22.0113,5.3543,32.4117,9.5352l15.5707,6.4268c5.069,2.2047,10.5548,4.1384,15.1506,7.5877
		c9.316,6.4504,17.7047,13.9832,25.9298,21.6606l2.8604,2.6713l-3.9604-0.2277c-20.6999-1.1891-40.1956,8.407-61.6664,10.0299
		c-10.7329,0.7859-21.4781-0.4247-31.8523-2.5724c-10.3657-2.2668-20.4375-5.3647-30.4563-8.2807
		c-10.0208-2.9062-20.0422-5.6442-30.2024-7.2834c-10.1484-1.6923-20.5134-1.9305-30.8444-1.2329
		c-20.7037,1.3762-41.1308,6.3437-61.4885,11.1496l-0.1237-0.4522c19.9794-6.1736,40.218-12.1463,61.3157-14.2927
		c10.524-0.9901,21.226-1.0313,31.7867,0.4456c10.5816,1.3271,20.7922,4.2163,30.8862,7.0433
		c20.0921,5.6763,40.1663,12.1574,60.6626,10.9789c20.3184-1.2833,40.5327-10.1707,62.192-8.3763l-1.1,2.4422
		c-7.9182-7.8567-15.9994-15.6676-24.9378-22.2705c-4.3941-3.3963-9.6039-5.2856-14.7598-7.6087
		c-5.1305-2.2485-10.2716-4.4715-15.5126-6.4301c-10.4383-3.9846-21.1135-7.6349-32.1537-8.5863
		c-11.0169-1.1864-22.1888-0.4973-33.1447,1.2289c-11.003,1.4606-21.8549,4.0167-32.5654,7.0256
		c-10.7779,2.8028-21.2954,6.5688-31.7546,10.4383c-20.821,8.038-41.1767,17.407-60.7292,28.3871L116.1486,400.0798z"/>
	<path class="st0" d="M362.7858,397.4642c-18.755-13.0618-38.5231-23.1853-60.9055-28.3917
		c-18.3526-4.2699-37.942-5.0886-56.7487-5.6501c-44.0913-1.3167-86.4727,17.9593-125.1169,36.9741
		c-1.3245,0.6518-2.1142-1.5215-0.7886-2.1621c40.5-19.5685,84.3597-38.9321,130.3915-36.554
		c40.8375,2.1085,81.3801,7.644,113.8788,34.9272C364.054,397.0755,363.3656,397.8686,362.7858,397.4642L362.7858,397.4642z"/>
	<path class="st0" d="M363.0482,397.5467c-41.4849-11.3315-83.8015-27.8492-127.5015-26.3604
		c-41.9528,1.4299-80.8848,14.4301-119.065,30.8319c-1.3598,0.585-2.151-1.5869-0.7872-2.1615
		c38.2692-16.1329,77.8596-28.929,119.7181-30.3385c43.6882-1.4698,86.6998,14.3195,127.8222,27.0063
		C363.859,396.7175,363.7032,397.7266,363.0482,397.5467L363.0482,397.5467z"/>
</g>
</svg>
