<?xml version="1.0" standalone="no"?>
<!DOCTYPE svg PUBLIC "-//W3C//DTD SVG 20010904//EN"
 "http://www.w3.org/TR/2001/REC-SVG-20010904/DTD/svg10.dtd">
<svg version="1.0" xmlns="http://www.w3.org/2000/svg"
 width="1280.000000pt" height="1280.000000pt" fill="white" viewBox="0 0 1280.000000 1280.000000"
 preserveAspectRatio="xMidYMid meet">
<metadata>
Created by potrace 1.15, written by Peter Selinger 2001-2017
</metadata>
<g transform="translate(0.000000,1280.000000) scale(0.100000,-0.100000)"
fill="#000000" stroke="none">
<path d="M6085 12794 c-583 -37 -1097 -129 -1591 -283 -1333 -417 -2494 -1260
-3309 -2402 -1290 -1808 -1545 -4169 -673 -6221 75 -176 232 -491 328 -658
755 -1314 1928 -2309 3343 -2834 520 -193 1063 -315 1662 -373 253 -24 857
-24 1110 0 1009 98 1901 388 2740 890 743 446 1409 1062 1919 1777 1580 2215
1580 5207 1 7419 -748 1047 -1784 1842 -2985 2291 -518 194 -1084 322 -1661
375 -155 15 -751 27 -884 19z"/>
</g>
</svg>
